<?xml version="1.0" encoding="UTF-8" standalone="no"?>
<!-- Created with Inkscape (http://www.inkscape.org/) -->

<svg
   xmlns:dc="http://purl.org/dc/elements/1.1/"
   xmlns:cc="http://creativecommons.org/ns#"
   xmlns:rdf="http://www.w3.org/1999/02/22-rdf-syntax-ns#"
   xmlns:svg="http://www.w3.org/2000/svg"
   xmlns="http://www.w3.org/2000/svg"
   xmlns:sodipodi="http://sodipodi.sourceforge.net/DTD/sodipodi-0.dtd"
   xmlns:inkscape="http://www.inkscape.org/namespaces/inkscape"
   width="210mm"
   height="297mm"
   viewBox="0 0 210 297"
   version="1.1"
   id="svg8"
   inkscape:version="0.92.5 (2060ec1f9f, 2020-04-08)"
   sodipodi:docname="hank01.svg"
   inkscape:export-filename="/home/mateus/Documentos//GitHub/myBot_hank/avatarHankbot01.png"
   inkscape:export-xdpi="44.008865"
   inkscape:export-ydpi="44.008865">
  <defs
     id="defs2" />
  <sodipodi:namedview
     id="base"
     pagecolor="#ffffff"
     bordercolor="#666666"
     borderopacity="1.0"
     inkscape:pageopacity="0.0"
     inkscape:pageshadow="2"
     inkscape:zoom="1.1276151"
     inkscape:cx="443.39889"
     inkscape:cy="607.14286"
     inkscape:document-units="mm"
     inkscape:current-layer="layer1"
     showgrid="false"
     inkscape:window-width="1920"
     inkscape:window-height="948"
     inkscape:window-x="0"
     inkscape:window-y="27"
     inkscape:window-maximized="1" />
  <metadata
     id="metadata5">
    <rdf:RDF>
      <cc:Work
         rdf:about="">
        <dc:format>image/svg+xml</dc:format>
        <dc:type
           rdf:resource="http://purl.org/dc/dcmitype/StillImage" />
        <dc:title></dc:title>
      </cc:Work>
    </rdf:RDF>
  </metadata>
  <g
     inkscape:label="Camada 1"
     inkscape:groupmode="layer"
     id="layer1">
    <g
       id="g241">
      <ellipse
         ry="43.166561"
         rx="43.160332"
         cy="118.92771"
         cx="100.16573"
         id="path237"
         style="fill:#786721;stroke:#786721;stroke-width:0.24033448" />
      <path
         inkscape:connector-curvature="0"
         id="path208"
         d="m 100.40648,84.719744 c 0.0803,0.0102 0.19033,0.06285 0.30885,0.154776 0.15939,0.123628 0.68307,0.173107 2.26669,0.214643 3.46615,0.09082 5.35826,0.458511 9.63529,1.871923 0.66273,0.219009 2.78456,1.219818 3.58301,1.689889 0.90887,0.535071 4.19492,3.208484 4.19492,3.412876 0,0.05856 -0.10812,0.122122 -0.24011,0.141148 -0.42264,0.06094 -0.23944,0.250866 0.23323,0.242388 0.44709,-0.0085 0.46259,0.0044 0.77583,0.64977 0.17575,0.362078 0.33101,0.74791 0.34483,0.857598 0.0139,0.1097 0.077,0.231434 0.14067,0.270615 0.17975,0.110708 0.27745,0.436445 0.15231,0.507649 -0.0619,0.0352 -0.11265,-0.0099 -0.11265,-0.09978 0,-0.08988 -0.0683,-0.202029 -0.15178,-0.249686 -0.0835,-0.04762 -0.26123,-0.249358 -0.39506,-0.448269 -0.13384,-0.198902 -0.29027,-0.364129 -0.34799,-0.366013 -0.0577,-0.0022 -0.17495,-0.02827 -0.2602,-0.05841 -0.26571,-0.09385 -0.35404,0.102027 -0.54843,1.217772 -0.10365,0.594993 -0.24683,1.131399 -0.31837,1.191488 -0.0894,0.07507 -0.10693,0.07015 -0.055,-0.01509 0.0415,-0.06824 -0.0253,-0.238472 -0.14914,-0.37867 l -0.22529,-0.255039 -0.32578,0.222917 c -0.17922,0.122743 -0.34684,0.280963 -0.37231,0.35141 -0.0567,0.156597 0.53349,0.378088 0.82237,0.308582 0.15791,-0.038 0.20943,0.01376 0.20943,0.210262 0,0.298276 -0.18561,0.335424 -0.47438,0.09491 -0.3294,-0.274345 -1.92357,-0.484321 -5.34994,-0.704283 -1.17014,-0.07525 -1.90376,-0.07767 -2.17679,-0.0068 -0.79315,0.205751 -1.16754,0.217453 -1.76375,0.05451 -0.61826,-0.16896 -1.56118,-0.123822 -1.851,0.08858 -0.0974,0.07137 -0.12383,0.303835 -0.0819,0.717423 0.0379,0.374165 0.0103,0.674541 -0.0709,0.773884 -0.10009,0.122587 -0.14748,0.129365 -0.19251,0.02726 -0.0329,-0.07446 -0.12121,-0.135336 -0.19674,-0.135309 -0.2307,9.5e-5 -0.14827,5.404882 0.11212,7.348972 0.0397,0.29686 0.16278,0.55973 0.33054,0.70428 0.39091,0.33684 0.47084,0.90452 0.19673,1.39932 -0.18714,0.33776 -0.20897,0.51773 -0.1322,1.08733 0.0506,0.3753 0.17762,0.83464 0.2824,1.02115 0.10478,0.18651 0.19092,0.53479 0.19092,0.77388 0,0.62813 0.18776,0.68674 1.97846,0.61375 0.82074,-0.0334 1.61909,-0.0737 1.77433,-0.0891 0.405,-0.0403 0.42048,0.15859 0.0281,0.36407 -0.1846,0.0967 -0.68641,0.63254 -1.11483,1.19101 -0.42844,0.55846 -0.82612,1.06746 -0.88373,1.13113 -0.46068,0.50913 -1.4234,1.91734 -1.36763,2.00042 0.0383,0.0571 0.17202,0.10367 0.29722,0.10367 0.12759,0 0.37037,0.17977 0.55212,0.40884 0.17838,0.22478 0.49951,0.60823 0.71397,0.85225 0.43483,0.49474 0.36038,0.48637 2.61045,0.29641 1.04388,-0.0882 1.0985,-0.0912 4.35356,-0.2492 3.19303,-0.15503 3.29427,-0.17114 3.29427,-0.51982 0,-0.34803 -0.31335,-1.46316 -0.58651,-2.08753 -0.11724,-0.26801 -0.33205,-0.77965 -0.47756,-1.13699 -0.24662,-0.60565 -0.34074,-0.82632 -0.68169,-1.59741 -0.0815,-0.18423 -0.22086,-0.29787 -0.36545,-0.29787 -0.12854,0 -0.29144,-0.0996 -0.36226,-0.22145 -0.11874,-0.20422 -0.11004,-0.21058 0.11158,-0.0833 0.49792,0.28618 0.57736,0.0174 1.14392,-3.86407 0.0956,-0.65512 0.22419,-1.53242 0.28559,-1.94932 0.0614,-0.41688 0.14014,-1.00127 0.17505,-1.29905 0.0349,-0.29778 0.11364,-0.68298 0.17505,-0.85565 0.15211,-0.42786 0.14056,-0.79596 -0.0269,-0.84738 -0.0833,-0.0256 -0.10539,-0.12312 -0.055,-0.24385 0.13544,-0.3248 0.28329,-0.0747 0.60925,1.02941 0.16649,0.56401 0.45473,1.46393 0.64044,1.99993 0.18573,0.53601 0.47877,1.41331 0.65103,1.94932 0.69487,2.16219 0.76754,2.32797 1.02387,2.32797 0.212,0 0.23297,0.0479 0.17135,0.39717 -0.0385,0.21851 -0.12957,0.43145 -0.20202,0.47261 -0.0884,0.0503 -0.0701,0.0965 0.055,0.14066 0.21035,0.0743 0.25922,0.6682 0.0639,0.77923 -0.0673,0.0383 -0.0909,0.16121 -0.0524,0.27306 0.0386,0.11185 0.0209,0.2902 -0.0392,0.39667 -0.1742,0.30907 -0.25839,2.9575 -0.15707,4.94555 0.0776,1.52121 0.12647,1.85036 0.29087,1.961 0.10864,0.0731 0.19779,0.17946 0.19779,0.23606 0,0.0567 0.10842,0.21005 0.24117,0.34119 0.1901,0.18779 0.24427,0.39354 0.2549,0.96808 0.008,0.40121 -0.0446,0.89982 -0.11528,1.10826 -0.0707,0.20845 -0.18379,0.76907 -0.25174,1.24552 -0.0679,0.47645 -0.23002,1.47499 -0.36015,2.21944 -0.13014,0.74444 -0.23862,1.67024 -0.24169,2.05736 -0.005,0.62861 -0.0378,0.72575 -0.30833,0.90724 -0.23569,0.15813 -0.42709,0.1896 -0.86257,0.14213 -0.34343,-0.0374 -0.61089,-0.014 -0.69174,0.0604 -0.20759,0.19102 -0.24119,0.0657 -0.12429,-0.45996 0.0595,-0.26798 0.13665,-0.65791 0.17136,-0.86635 0.30343,-1.82217 0.45456,-2.5131 0.65314,-2.98797 0.30203,-0.72227 0.51705,-1.80489 0.40933,-2.06077 -0.0824,-0.19563 -0.0916,-0.1954 -0.26443,0.0137 -0.15933,0.19274 -1.10792,1.95639 -1.51465,2.81567 -0.43649,0.92213 -0.79262,1.63347 -1.39301,2.785 -0.36396,0.69804 -0.66161,1.29607 -0.66161,1.32875 0,0.0327 -0.20632,0.46042 -0.45852,0.95056 -0.25221,0.49014 -0.49536,1.00469 -0.54049,1.14379 -0.0774,0.23856 -0.56598,1.04209 -0.99849,1.64219 -0.1073,0.14889 -0.63475,1.07469 -1.17195,2.05736 -0.53719,0.98267 -1.01376,1.83576 -1.05931,1.89529 -0.25779,0.33744 -1.65473,3.70991 -1.65427,3.99353 1.9e-4,0.11209 0.10746,0.36359 0.23851,0.55875 0.13107,0.19517 0.38269,0.5967 0.55902,0.89265 0.44113,0.74044 0.93475,1.249 1.1418,1.17591 0.18154,-0.0641 0.73402,-1.00953 1.12964,-1.93325 0.13278,-0.31004 0.41419,-0.78517 0.62511,-1.05569 0.21094,-0.27053 0.64967,-0.97897 0.97522,-1.57453 0.32555,-0.59556 0.70564,-1.25367 0.84459,-1.46211 0.13895,-0.20844 0.329,-0.52916 0.42202,-0.71256 0.0931,-0.18341 0.25142,-0.39614 0.35222,-0.47309 0.10081,-0.077 0.183,-0.19976 0.183,-0.27256 0,-0.0728 0.10592,-0.22075 0.23533,-0.32854 0.23123,-0.19237 0.23534,-0.18903 0.23534,0.17522 0,0.24499 -0.11203,0.499 -0.33,0.7476 -0.44757,0.51052 -0.64519,1.19073 -0.56271,1.93471 0.037,0.33413 0.10173,2.36203 0.14385,4.50604 0.0422,2.14402 0.0853,4.23907 0.0957,4.65596 0.0105,0.4169 -0.003,0.86466 -0.0291,0.99486 -0.0289,0.14287 -0.47434,0.53792 -1.12383,0.99631 -0.59182,0.4177 -1.21916,0.8715 -1.39354,1.00849 -0.17438,0.13699 -0.48875,0.37091 -0.69862,0.51981 -0.20988,0.14889 -0.60389,0.47746 -0.8758,0.73056 -0.27189,0.25312 -0.53981,0.46035 -0.59549,0.46043 -0.0557,6e-5 -0.26015,0.1275 -0.45428,0.28327 -0.19415,0.15576 -0.54917,0.3987 -0.78907,0.53977 -0.23988,0.14107 -0.49111,0.35039 -0.55794,0.46532 -0.18683,0.32129 -1.03425,0.4218 -3.12397,0.3699 -2.35179,-0.0585 -6.43992,0.14404 -6.93388,0.34362 l -5.2e-4,4.8e-4 c -0.43363,0.17524 -1.08373,0.20578 -1.18465,0.0555 -0.04,-0.0596 -0.19014,-0.10854 -0.3337,-0.10854 -0.14357,0 -0.3714,-0.0708 -0.506119,-0.1577 -0.257071,-0.16571 -2.160776,-0.78375 -2.866417,-0.93059 -0.355533,-0.074 -2.299596,-0.69751 -3.000217,-0.96224 -0.12943,-0.0489 -0.473529,-0.17476 -0.764733,-0.27939 -0.291204,-0.10462 -0.760863,-0.28386 -1.043967,-0.39862 -0.283094,-0.11475 -0.759986,-0.29907 -1.059299,-0.40932 -0.299304,-0.11027 -0.808728,-0.33221 -1.132294,-0.49306 -1.816423,-0.90298 -3.005068,-1.45358 -3.500514,-1.62223 -0.307376,-0.10463 -0.559003,-0.23233 -0.559003,-0.28376 0,-0.0515 -0.239854,-0.0939 -0.533092,-0.0939 -0.320157,0 -0.55403,-0.0541 -0.585441,-0.13531 -0.04738,-0.12253 -0.253266,-1.59737 -0.52569,-3.76284 -0.05623,-0.44667 -0.161058,-1.04887 -0.232695,-1.33848 -0.07168,-0.28958 -0.178313,-1.34568 -0.237462,-2.34647 -0.05915,-1.0008 -0.161378,-2.10372 -0.226875,-2.45112 -0.31038,-1.64734 -0.5017,-3.64922 -0.552664,-5.77491 -0.0307,-1.28045 -0.0843,-2.62663 -0.118458,-2.99138 -0.06084,-0.64947 -0.07328,-0.66991 -0.612953,-0.99242 -0.303109,-0.18112 -0.786556,-0.58305 -1.074115,-0.89313 -0.287559,-0.31008 -0.579742,-0.61863 -0.64944,-0.68578 -0.0697,-0.0672 -0.249178,-0.26864 -0.398755,-0.4473 -0.149586,-0.17867 -0.677903,-0.71502 -1.174075,-1.19197 -1.680804,-1.61577 -2.148107,-2.14904 -2.084758,-2.38104 0.03259,-0.11911 -0.04135,-0.58225 -0.163949,-1.02893 -0.535485,-1.95114 -0.621995,-2.38915 -0.680635,-3.43185 -0.04333,-0.7693 -0.0028,-1.42512 0.133801,-2.16542 0.107758,-0.58411 0.223795,-1.22579 0.258088,-1.42608 0.03428,-0.2003 0.15826,-0.45898 0.275531,-0.57481 0.117271,-0.11584 0.241691,-0.37287 0.276587,-0.57093 0.07544,-0.4276 0.779925,-1.36592 1.23278,-1.64219 0.23588,-0.14394 0.550404,-0.19619 1.185698,-0.19712 l 0.864683,-0.002 -0.07827,-0.54464 c -0.04295,-0.29943 -0.202048,-1.05579 -0.353273,-1.68113 -0.490502,-2.02828 -0.690326,-3.37676 -0.771081,-5.19768 -0.151734,-3.42342 0.0535,-5.416357 0.583331,-5.663467 0.444331,-0.207216 0.562374,-0.460334 0.326316,-0.700386 -0.256261,-0.260631 -0.253068,-0.468828 0.01582,-1.032332 0.119239,-0.249848 0.472172,-1.029968 0.784295,-1.733208 0.922467,-2.07842 2.378939,-3.777357 4.404869,-5.137809 0.609138,-0.409048 0.85582,-0.435495 1.189935,-0.128007 0.338891,0.311879 0.639956,0.231649 0.640973,-0.171325 9.42e-4,-0.345962 0.489456,-0.917952 0.783241,-0.917952 0.09296,0 0.22453,-0.05186 0.292994,-0.114866 0.06847,-0.06296 0.330922,-0.133364 0.582803,-0.156724 0.335434,-0.03118 0.395007,-0.01723 0.222646,0.05257 -0.129364,0.05243 -0.16507,0.09942 -0.07883,0.103183 0.172398,0.0084 0.125211,0.278188 -0.04869,0.278405 -0.05934,9.5e-5 -0.275033,0.109448 -0.479152,0.243361 -0.20413,0.133903 -0.455738,0.243845 -0.559003,0.243845 -0.103209,0 -0.187741,0.06608 -0.187741,0.146989 0,0.127179 0.745378,0.995058 1.12911,1.314628 0.508642,0.423605 2.884774,3.488768 3.449221,4.449588 0.666205,1.134018 1.702825,2.318245 2.029226,2.318245 0.124504,0 0.435582,-0.09875 0.691749,-0.219024 0.298823,-0.140347 0.571727,-0.193801 0.761559,-0.149909 0.16718,0.03864 0.370358,0.01165 0.466456,-0.06181 0.102483,-0.07827 0.309787,-0.101744 0.521987,-0.05889 0.220772,0.04462 0.497293,0.0092 0.740396,-0.09491 0.21335,-0.09139 0.650599,-0.219144 0.971518,-0.283757 0.320911,-0.06466 0.638685,-0.157988 0.706028,-0.207343 0.06734,-0.04936 0.545835,-0.123241 1.063529,-0.164023 0.51769,-0.0408 1.28547,-0.128899 1.7061,-0.196148 0.7504,-0.119955 1.71203,-0.166055 4.059,-0.194687 1.10987,-0.01354 1.17874,-0.0018 1.21425,0.212208 0.0233,0.140026 0.1248,0.226812 0.26496,0.226812 0.29779,0 0.29173,-0.285194 -0.009,-0.43318 -0.42602,-0.209828 -0.83912,-1.415901 -0.87155,-2.544568 -0.0143,-0.497434 -0.0866,-0.738271 -0.30886,-1.028437 -0.15956,-0.208444 -0.32345,-0.403418 -0.36438,-0.433183 -0.1267,-0.0922 -0.45483,-1.075628 -0.45483,-1.362811 0,-0.344899 -0.31324,-0.911142 -0.504,-0.911142 -0.0798,0 -0.51133,-0.39645 -0.95882,-0.880959 -0.44747,-0.484521 -0.98521,-0.974264 -1.19522,-1.088305 -0.41403,-0.224812 -0.80219,-0.687713 -0.7018,-0.837156 0.0344,-0.05114 -0.0239,-0.08635 -0.12957,-0.07787 -0.10558,0.0082 -0.21769,-0.05383 -0.24962,-0.137742 -0.0433,-0.113588 -0.002,-0.130711 0.16342,-0.06619 0.52012,0.203216 0.84569,0.19065 0.97891,-0.03845 0.11571,-0.198976 0.0867,-0.241816 -0.25385,-0.370879 -0.29462,-0.111613 -0.71682,-0.127193 -1.79705,-0.06522 -2.23909,0.128602 -2.529541,0.12131 -2.529541,-0.06473 0,-0.106663 0.115783,-0.162563 0.337949,-0.162563 0.185998,0 0.567479,-0.0745 0.847758,-0.165484 0.280278,-0.09096 0.578314,-0.141035 0.662124,-0.11146 0.0837,0.02967 0.15232,0.0065 0.15232,-0.05111 0,-0.07687 0.0502,-0.109005 0.13063,-0.0988 z m -2.768575,0.65269 c 0.302412,-0.0084 0.268552,0.02657 0.07987,0.151858 -0.145084,0.09635 -0.562884,0.219787 -0.928146,0.274509 -0.365253,0.05471 -0.69237,0.125173 -0.726654,0.156722 -0.130457,0.120052 -0.611361,0.05119 -0.611361,-0.08761 0,-0.196312 0.832029,-0.420204 1.7648,-0.474549 0.182325,-0.01062 0.320693,-0.01813 0.4215,-0.02093 z m -3.141958,0.586985 c 0.02148,2.24e-4 0.04578,0.0047 0.07243,0.01412 0.09672,0.03415 0.146883,0.105847 0.111064,0.159156 -0.102672,0.152912 -0.286645,0.112844 -0.286645,-0.0623 0,-0.07246 0.03871,-0.111649 0.103133,-0.11097 z m -1.082573,0.400569 c 0.02421,-0.0028 0.03805,0.01233 0.03805,0.04624 0,0.06154 -0.03504,0.144814 -0.07827,0.184466 -0.04323,0.03975 -0.106148,0.04687 -0.139612,0.01607 -0.03334,-0.03077 0.0019,-0.11353 0.07883,-0.183981 0.04229,-0.03885 0.07676,-0.05997 0.101014,-0.06279 z m -3.633787,1.071755 c 0.04653,-6.2e-5 0.08731,0.01077 0.114238,0.03553 0.04389,0.04038 0.0019,0.118864 -0.09306,0.174246 -0.227741,0.132652 -0.349571,0.129773 -0.349571,-0.0078 0,-0.10469 0.188721,-0.201803 0.328417,-0.20199 z m 18.162603,11.57516 c 0.0544,0 0.0989,0.0913 0.0989,0.20296 0,0.11168 0.034,0.36749 0.0756,0.56849 h 5.4e-4 c 0.0416,0.20098 0.0332,0.329777 -0.0186,0.285697 -0.13527,-0.115107 -0.27479,-1.057147 -0.15655,-1.057147 z m -14.392896,0.43075 h -5.27e-4 c -0.117799,0.008 -0.273243,0.20088 -0.503471,0.56216 -0.240353,0.377117 -0.671471,1.050957 -0.958295,1.497627 -0.516082,0.80366 -0.603591,1.00632 -0.937668,2.1659 -0.09437,0.32756 -0.21853,0.69274 -0.275532,0.81185 -0.05698,0.11912 -0.19617,0.46052 -0.309391,0.75831 -0.168423,0.44293 -0.755409,1.51135 -1.783834,3.24836 -0.325356,0.54953 -1.519963,3.11759 -1.937216,4.16437 -0.129572,0.32507 -0.310654,0.72446 -0.402466,0.88778 -0.212079,0.37773 -0.214659,0.92089 -0.0047,1.03331 0.08882,0.0477 0.296215,0.33315 0.461163,0.63467 0.164929,0.30152 0.379371,0.60913 0.476496,0.68336 0.09712,0.0741 0.430383,0.49763 0.740405,0.94083 0.310032,0.4432 0.592006,0.80351 0.626704,0.80163 0.07064,-0.005 0.137398,-0.0753 0.678525,-0.71208 0.513605,-0.60439 1.465749,-1.89282 3.550225,-4.80634 0.362173,-0.50623 0.687454,-0.94466 0.72348,-0.97442 0.03607,-0.0298 0.258729,-0.29007 0.495013,-0.57822 l 0.429968,-0.52371 -0.04606,-2.29148 c -0.05519,-2.74771 -0.249225,-4.86942 -0.674296,-7.3811 -0.107532,-0.635387 -0.196773,-0.931767 -0.347989,-0.922807 z m 26.453526,1.234797 c 0.0106,-2.5e-4 0.024,0.004 0.0407,0.0136 0.0639,0.0363 0.11608,0.11193 0.11636,0.16792 v 4.9e-4 c -2.5e-4,0.15501 -0.0842,0.12112 -0.16237,-0.0662 -0.0301,-0.0722 -0.0268,-0.11508 0.005,-0.11584 z m -11.96174,1.69135 c 0.0648,0 0.11793,0.21921 0.11793,0.48721 0,0.268 -0.0532,0.4872 -0.11793,0.4872 -0.0648,0 -0.1174,-0.2192 -0.1174,-0.4872 0,-0.268 0.0526,-0.48721 0.1174,-0.48721 z m 14.98576,0.16986 c 0.017,-0.0194 0.0387,0.0663 0.0799,0.23996 0.0706,0.29664 0.0649,0.89612 -0.01,1.10631 -0.0688,0.19401 -0.16387,-0.53888 -0.12375,-0.95494 0.0238,-0.24752 0.0364,-0.37196 0.0534,-0.39133 z m -11.45932,7.843 c -0.0668,0 -0.15318,0.0755 -0.19145,0.16743 -0.0829,0.19878 -0.0344,0.25352 0.16553,0.18788 0.17661,-0.058 0.19837,-0.35531 0.0259,-0.35531 z m -4.81209,0.20929 c -0.67096,0.002 -1.46514,0.0246 -2.00174,0.0676 -0.63179,0.0507 -0.989,0.12765 -1.02809,0.22146 -0.033,0.0791 0.25348,0.49867 0.63622,0.93256 1.32299,1.49987 1.91033,2.24036 1.81873,2.29245 -0.0506,0.0287 -0.16889,0.008 -0.26283,-0.0472 -0.27925,-0.16258 -0.46487,-0.117 -0.46487,0.1139 0,0.12803 0.084,0.22274 0.20573,0.23217 v 4.8e-4 c 0.76389,0.0588 2.17667,0.0218 2.2651,-0.0593 0.0605,-0.0554 0.0623,-0.17271 0.006,-0.27063 -0.24086,-0.41421 -0.26159,-1.22237 -0.0592,-2.2827 0.11411,-0.59805 0.18106,-1.11149 0.14914,-1.14088 -0.0453,-0.0418 -0.59301,-0.0614 -1.26398,-0.0599 z m -26.939546,0.69941 c -0.214207,0.008 -0.478107,0.0497 -0.774774,0.12363 -0.746018,0.18586 -1.210317,0.47902 -1.075707,0.67946 0.03739,0.0556 0.346934,0.23131 0.688047,0.39084 0.692474,0.32382 1.101448,0.63641 2.577662,1.96829 1.485218,1.34 2.48648,2.79721 3.043581,4.42963 0.08128,0.23822 0.200258,0.49408 0.264427,0.56849 0.144622,0.16768 0.187015,0.16508 0.582803,-0.0326 0.428857,-0.21423 0.493601,-0.60742 0.3977,-2.41316 -0.04323,-0.81373 -0.08156,-1.60042 -0.08467,-1.7478 -0.01027,-0.45694 -0.443323,-0.86575 -1.737297,-1.64024 -0.685899,-0.41053 -1.379306,-0.84202 -1.541098,-0.95884 -0.161774,-0.11683 -0.625244,-0.39088 -1.029688,-0.60889 -0.404444,-0.21802 -0.735639,-0.46235 -0.735639,-0.54269 0,-0.15712 -0.218398,-0.23089 -0.575401,-0.21611 z m 26.366266,3.35837 c -0.56528,-0.0179 -0.83517,0.0758 -0.91123,0.29642 -0.0412,0.11918 -0.017,1.17543 0.0534,2.34744 0.0704,1.17202 0.18334,3.2482 0.25068,4.61361 l 0.12217,2.48227 0.60184,0.92866 c 0.33104,0.5106 0.68136,1.01376 0.77847,1.11799 0.1073,0.11522 0.19047,0.46522 0.21156,0.89313 0.0309,0.6266 0.0106,0.7038 -0.18511,0.7038 -0.12092,0 -0.3038,0.0296 -0.40617,0.0658 -0.12173,0.0429 -0.18615,0.007 -0.18615,-0.10659 0,-0.0949 -0.17692,-0.2409 -0.39348,-0.32416 -0.21654,-0.0833 -0.66616,-0.32738 -0.99901,-0.54269 -0.33285,-0.21531 -0.66521,-0.39182 -0.73828,-0.39182 -0.0731,0 -0.44617,-0.23108 -0.82925,-0.51397 l -0.69651,-0.51446 0.0556,-1.89529 c 0.0306,-1.04221 0.092,-2.96657 0.13645,-4.2768 0.0476,-1.40334 0.0355,-2.5379 -0.0296,-2.76116 l -0.11054,-0.37915 -0.93343,0.0331 c -2.106244,0.0745 -7.673263,0.24996 -9.845765,0.31053 -1.278065,0.0356 -2.323812,0.10501 -2.323812,0.1538 0,0.0488 -0.158741,0.33688 -0.353272,0.64053 -0.298165,0.46544 -0.332722,0.58948 -0.218945,0.78993 0.14466,0.25487 2.155662,3.04433 2.344956,3.25275 0.516233,0.56836 1.992739,2.54035 1.992739,2.66139 0,0.0473 0.273827,0.42175 0.608724,0.83228 0.334906,0.41053 0.985251,1.25778 1.445368,1.88311 1.131945,1.53839 1.96954,2.59842 2.303185,2.91497 0.09926,0.0942 0.334652,0.3823 0.523042,0.64053 0.31266,0.42851 0.373749,0.46302 0.701789,0.39521 0.197668,-0.0409 1.524191,-0.099 2.947861,-0.12947 1.42367,-0.0305 2.87715,-0.0621 3.22974,-0.0705 0.5862,-0.0137 0.64686,0.008 0.70868,0.24579 0.0452,0.17429 0.20299,0.304 0.47649,0.39084 0.99469,0.31581 0.91295,0.34441 0.9895,-0.34898 0.038,-0.34499 0.12167,-0.92512 0.18563,-1.28932 0.15274,-0.8693 0.14694,-1.23286 -0.0196,-1.23286 -0.0794,0 -0.0517,-0.0856 0.0667,-0.20588 0.13253,-0.13473 0.15924,-0.23033 0.0772,-0.27694 -0.0689,-0.0392 -0.12534,-0.3627 -0.12534,-0.7189 0,-0.45101 -0.0772,-0.78638 -0.25438,-1.10387 -0.15981,-0.28642 -0.26469,-0.69449 -0.28188,-1.09852 -0.0428,-1.00619 0.1686,-2.89712 0.34482,-3.0863 0.19301,-0.20721 0.44545,-1.35214 0.34904,-1.58329 -0.0386,-0.0926 -0.14291,-0.1412 -0.23164,-0.10805 -0.0887,0.0332 -0.23407,0.0876 -0.3226,0.1207 -0.10009,0.0375 -0.18852,-0.034 -0.23376,-0.18933 -0.15897,-0.54626 -0.077,-0.85825 0.32789,-1.2533 0.37864,-0.36935 0.39933,-0.4273 0.33424,-0.94034 -0.0448,-0.35306 -0.14631,-0.59686 -0.28611,-0.68823 -0.15905,-0.10397 -0.21631,-0.28011 -0.21631,-0.66437 0,-0.51763 0.0898,-0.74995 0.51935,-1.33847 0.29876,-0.40941 0.16489,-0.50396 -0.88742,-0.6269 -0.25793,-0.0301 -0.479,-0.0486 -0.66743,-0.0545 z m -15.566437,1.38909 c -0.06951,-0.003 -0.105771,0.0399 -0.105771,0.12558 0,0.11345 0.102851,0.17425 0.294576,0.17425 0.161783,0 0.294039,-0.049 0.294039,-0.10854 0,-0.0596 -0.04888,-0.10805 -0.108417,-0.10805 -0.05943,0 -0.191678,-0.0301 -0.294039,-0.0662 -0.03052,-0.0108 -0.05727,-0.0163 -0.08044,-0.017 z m 33.464607,0.0297 c 0.0432,-0.008 0.0804,0.18558 0.0804,0.58698 0,0.44625 -0.0692,0.78595 -0.20203,0.99291 -0.11102,0.17296 -0.27018,0.31442 -0.35328,0.31442 -0.20489,0 -0.19075,-0.0674 0.0846,-0.41079 0.14657,-0.18276 0.24868,-0.50658 0.2713,-0.85906 0.0261,-0.4063 0.0757,-0.61634 0.11899,-0.62446 z m -14.56847,0.0458 -0.0667,0.30128 c -0.14451,0.65297 0.5085,7.42804 0.74146,7.6926 0.0658,0.0747 0.42468,0.30651 0.79751,0.51494 0.37285,0.20844 0.86942,0.45236 1.1032,0.54221 0.42436,0.16317 0.42468,0.16323 0.42468,-0.11535 0,-0.15349 -0.19115,-0.99485 -0.42468,-1.8695 -0.23352,-0.87463 -0.51987,-2.05325 -0.63674,-2.61903 -0.71355,-3.45478 -0.63881,-3.23589 -1.32003,-3.87088 z m 5.69158,0.67605 v 4.9e-4 c -0.23221,-0.006 -0.56134,-0.005 -0.93186,0.004 -0.79746,0.0183 -1.34753,0.0752 -1.34753,0.1392 0,0.21981 2.37833,0.12115 2.62843,-0.10902 0.0182,-0.017 -0.11686,-0.0291 -0.34904,-0.0346 z m 7.06978,0.29982 c -0.21222,-0.004 -0.46593,0.0607 -0.46593,0.16354 0,0.20978 0.25902,0.74289 0.40935,0.84251 0.066,0.0437 0.15444,0.0804 0.1962,0.0813 0.0874,0.002 0.20513,-0.8777 0.1338,-0.99972 -0.034,-0.0582 -0.14608,-0.0853 -0.27342,-0.0876 z m -44.162901,5.67855 c -0.0422,0.002 -0.07196,0.0447 -0.07196,0.11438 0,0.0928 0.05274,0.1689 0.117422,0.1689 0.0648,0 0.117921,-0.0457 0.117921,-0.10173 0,-0.056 -0.05322,-0.13206 -0.117921,-0.16889 -0.0162,-0.009 -0.03146,-0.0132 -0.0454,-0.0126 z m 0.304625,0.34412 c -0.03315,0.008 -0.03014,0.0586 0.03014,0.14845 0.04267,0.0635 0.129581,0.11584 0.193034,0.11584 0.06348,0 0.047,-0.0685 -0.03654,-0.15186 -0.08439,-0.0844 -0.153589,-0.12006 -0.186695,-0.11243 z m 34.522856,1.27812 c -0.0409,-0.003 -0.0676,0.0311 -0.0645,0.0896 0.004,0.078 0.054,0.23911 0.10948,0.35823 0.0902,0.19341 0.10234,0.18524 0.10947,-0.075 0.004,-0.16027 -0.0448,-0.32141 -0.10947,-0.35823 -0.0162,-0.009 -0.0314,-0.0138 -0.0449,-0.0146 z m -2.61838,0.36115 c -0.28067,-0.0184 -0.35258,0.0356 -0.47438,0.35725 -0.0789,0.20844 -0.14557,0.56174 -0.14967,0.78507 -0.007,0.37474 0.0182,0.40502 0.31678,0.39522 0.17797,-0.006 0.42906,-0.0677 0.55848,-0.13774 0.66832,-0.36146 0.83309,-0.43915 0.93184,-0.44292 0.49771,-0.0177 -0.61763,-0.91987 -1.18305,-0.95688 z m -25.629565,2.67257 c -0.172275,-0.008 -0.334247,0.0116 -0.400874,0.0521 -0.202142,0.1228 -0.343929,1.78072 -0.240098,2.80691 0.0404,0.39989 0.08317,1.59999 0.09517,2.66674 0.01206,1.06673 0.04012,1.9683 0.06188,2.00333 0.02166,0.035 0.07431,0.77036 0.116875,1.63391 0.08675,1.76266 0.253256,3.40983 0.361203,3.57058 0.03937,0.0587 0.12101,1.04555 0.180884,2.19316 0.115613,2.2168 0.357078,3.81993 0.609242,4.04463 0.273355,0.24362 3.44922,1.66491 5.389064,2.4117 2.955668,1.13785 3.479078,1.34621 3.588314,1.42609 0.06471,0.0473 0.488392,0.21936 0.94137,0.38255 0.452987,0.16323 0.874045,0.33823 0.935549,0.3889 0.0615,0.0507 0.222684,0.092 0.358566,0.092 0.1359,0 0.297589,0.0427 0.359102,0.0949 0.0615,0.0523 0.37665,0.17251 0.700207,0.26721 0.8913,0.26092 1.588163,0.38372 1.588163,0.27987 0,-0.0512 -0.07394,-0.30161 -0.16395,-0.55681 -0.09004,-0.2552 -0.251033,-0.82952 -0.358038,-1.27618 -0.107014,-0.44667 -0.273469,-1.08004 -0.36967,-1.40759 -0.0962,-0.32757 -0.219407,-0.81495 -0.27395,-1.08295 -0.05453,-0.268 -0.205607,-0.85238 -0.33582,-1.29905 -0.130221,-0.44667 -0.356408,-1.29972 -0.502425,-1.89529 -0.586128,-2.39079 -0.943489,-3.4572 -1.260792,-3.76283 -0.170043,-0.16378 -0.371817,-0.29787 -0.448475,-0.29787 -0.07667,0 -0.535532,-0.23773 -1.019638,-0.52857 -0.884124,-0.53117 -1.065422,-0.65519 -1.845197,-1.26207 -0.232517,-0.18097 -0.721671,-0.51427 -1.086802,-0.74079 -0.738945,-0.45842 -1.803576,-1.30216 -3.219689,-2.55138 -0.51823,-0.45714 -1.197555,-0.94839 -1.509367,-1.09171 -0.669794,-0.30786 -0.885141,-0.68444 -0.880027,-1.53414 0.0019,-0.31615 -0.08128,-1.30565 -0.185094,-2.19899 -0.103755,-0.89334 -0.189219,-1.85247 -0.189332,-2.13135 -2.92e-4,-0.54527 -0.01658,-0.55846 -0.823967,-0.68043 -0.05661,-0.008 -0.114982,-0.0141 -0.172398,-0.0166 z m 35.289705,1.51613 c 0.0832,0.022 0.0785,0.49369 -0.0138,1.39348 -0.0413,0.40201 -0.1244,0.73056 -0.18458,0.73056 -0.1362,0 0.0103,-1.96066 0.15707,-2.10603 0.0155,-0.0153 0.0294,-0.0211 0.0413,-0.018 z m -11.90833,2.47448 h -5.2e-4 c -0.0938,-7.7e-4 -0.15142,0.0401 -0.24063,0.12217 -0.17845,0.16453 -0.17771,0.20023 0.009,0.49158 0.24792,0.38631 0.25677,0.78924 0.0269,1.1983 -0.13419,0.23874 -0.1681,0.6571 -0.14702,1.80817 0.0229,1.24804 -0.007,1.55945 -0.17822,1.86656 -0.1133,0.20271 -0.20626,0.43383 -0.20626,0.51399 v 4.8e-4 c 0,0.11726 0.44946,0.14601 2.29208,0.14601 h 2.29154 l 0.34799,-0.56848 c 0.19117,-0.31267 0.40768,-0.63121 0.48126,-0.70769 0.0736,-0.0765 0.2391,-0.36892 0.36809,-0.64977 0.38904,-0.84707 0.41594,-0.90134 1.04978,-2.13475 0.33657,-0.65494 0.63728,-1.36611 0.66848,-1.58039 l 0.0571,-0.38937 -1.04926,-0.0623 c -1.4781,-0.0881 -2.50809,0.008 -2.81353,0.26332 -0.50716,0.42394 -1.37124,0.49109 -1.81133,0.14066 -0.0971,-0.0773 -0.40548,-0.22448 -0.6854,-0.32707 -0.2355,-0.0866 -0.36598,-0.13004 -0.46012,-0.13142 z m 11.58467,0.14115 c 0.0138,0.0176 0.0186,0.10928 0.0233,0.28473 0.005,0.21847 -0.022,0.47428 -0.0613,0.56849 -0.0393,0.0942 -0.1197,0.17132 -0.17876,0.17132 -0.10131,0 -0.0607,-0.24646 0.14173,-0.86636 0.0391,-0.11957 0.0614,-0.17584 0.0751,-0.15818 z m -32.379398,0.97879 c -0.0085,-0.0107 -0.01733,0.0127 -0.0275,0.0745 h -5.37e-4 c -0.02656,0.1646 -0.02571,0.40805 0.0019,0.54123 0.02797,0.1332 0.05001,-0.002 0.04917,-0.29933 -5.18e-4,-0.18613 -0.01027,-0.29847 -0.02326,-0.31637 z m 32.145108,0.30323 c 0.0125,0.0114 0.0207,0.0494 0.0233,0.11243 0.005,0.11414 -0.0228,0.1781 -0.0619,0.14213 -0.039,-0.036 -0.0438,-0.12918 -0.01,-0.20735 0.0187,-0.0431 0.0358,-0.0586 0.0481,-0.0472 z m -2.06783,5.20352 c -0.072,0.01 -0.15357,0.12572 -0.229,0.3519 -0.1037,0.31223 -0.10215,0.42377 0.009,0.48866 0.33301,0.19454 0.45104,0.0908 0.41463,-0.36456 -0.0262,-0.32676 -0.10224,-0.48889 -0.19463,-0.476 z m -12.61276,0.72569 c -0.45945,-0.008 -0.8289,0.0226 -0.87685,0.0939 -0.04,0.0596 -0.16825,0.10805 -0.28506,0.10805 -0.1168,0 -0.34635,0.18259 -0.51034,0.40593 -0.30767,0.41895 -1.26345,1.96164 -1.26345,2.03935 0,0.10821 -1.05943,2.10262 -1.11695,2.10262 -0.0355,0 -0.26156,-0.11427 -0.50294,-0.25406 -0.458424,-0.26546 -1.321619,-0.47114 -1.321619,-0.3149 0,0.0497 0.07441,0.35622 0.165532,0.6814 0.09108,0.32518 0.25223,1.02978 0.358038,1.56578 0.105808,0.536 0.263523,1.1941 0.350099,1.4621 0.08656,0.268 0.249131,0.80389 0.36174,1.191 0.34426,1.18346 1.36736,4.05238 1.49614,4.19601 0.0668,0.0745 0.15452,0.12918 0.19515,0.1207 0.0406,-0.008 0.20631,-0.0373 0.36809,-0.0647 0.16177,-0.0274 0.35018,-0.0923 0.41885,-0.14407 0.0687,-0.0518 1.55157,-0.0918 3.2948,-0.0881 4.56128,0.008 4.36316,0.0187 4.61271,-0.22779 0.20142,-0.19897 0.50649,-1.25716 0.68222,-2.36497 0.0874,-0.55135 0.25154,-0.63873 0.74992,-0.40155 0.44764,0.21303 0.55321,0.16139 0.70444,-0.34264 0.12818,-0.42729 0.0841,-0.57482 -0.17082,-0.57482 -0.31159,0 -0.429,-0.39618 -0.29721,-1.00362 0.0675,-0.31139 0.19371,-0.89284 0.28028,-1.29223 0.16277,-0.75092 0.48886,-1.15769 0.9345,-1.16521 0.30141,-0.006 0.51067,-0.55364 0.27237,-0.71401 -0.24603,-0.16557 -2.11715,-0.12749 -2.34655,0.0477 -0.14772,0.11283 -0.21097,0.089 -0.37549,-0.14211 -0.15684,-0.22032 -0.29399,-0.27841 -0.66002,-0.27841 h -0.46169 l 0.0275,0.43026 c 0.0152,0.2366 -0.0112,0.46587 -0.0582,0.50911 -0.047,0.0432 -0.45484,0.0198 -0.90699,-0.0516 -0.45215,-0.0713 -1.14026,-0.12947 -1.52893,-0.12947 -0.66202,0 -0.71461,-0.0189 -0.83243,-0.29788 -0.0781,-0.18493 -0.0881,-0.44115 -0.0265,-0.67605 0.0805,-0.30708 0.1656,-0.38865 0.45218,-0.43415 l 0.35275,-0.0564 0.0211,-1.29808 c 0.0173,-1.05876 -0.0155,-1.34793 -0.17663,-1.5687 -0.10869,-0.14889 -0.22385,-0.39282 -0.2565,-0.54172 -0.05,-0.22853 -0.16009,-0.28976 -0.70603,-0.39521 -0.40812,-0.0788 -0.95789,-0.12391 -1.41733,-0.13142 z m -2.70141,4.13274 v 4.9e-4 c 0.28787,0.006 0.85985,0.0557 1.47075,0.13141 0.81453,0.1009 1.59302,0.15619 1.73043,0.12313 0.59894,-0.14414 0.91534,0.40288 0.4178,0.7223 -0.14561,0.0935 -0.42049,0.17289 -0.61084,0.1757 -0.76019,0.0124 -3.01335,-0.25 -3.10863,-0.36212 -0.21328,-0.25105 -0.26322,-0.7177 -0.0835,-0.78118 0.0238,-0.008 0.0881,-0.0115 0.18404,-0.01 z m 10.14298,6.83743 c -0.005,-0.002 -0.01,-3.5e-4 -0.0148,0.003 -0.025,0.0157 -0.0568,0.0861 -0.10736,0.19907 -0.0749,0.16742 -0.1702,0.5697 -0.21154,0.89362 h 5.2e-4 c -0.0866,0.67794 0.0667,0.78019 0.34905,0.23265 0.13795,-0.26769 0.16065,-0.49001 0.091,-0.89362 -0.0502,-0.29085 -0.0738,-0.42361 -0.10684,-0.43464 z"
         style="fill:#aca793;stroke-width:0.1128737" />
    </g>
  </g>
</svg>
